PathFileType	3	(X/Y/Z)	D:\VICON_DB\Goncalves\Pilot01\09-03-2026\bw_sq_120_02.trc
DataRate	CameraRate	NumFrames	NumMarkers	Units	OrigDataRate	OrigDataStartFrame	OrigNumFrames
200.0	200.0	11	34	mm	200.0	492	787	
Frame#	Time	LASI			RASI			LPSI			RPSI			LTHI			LTHAP			LTHAD			LKNE			LKNM			LTIB			LTIAP			LTIAD			LANK			LMED			LHEE			LTOE			LFMH			LSMH			LVMH			RTHI			RTHAP			RTHAD			RKNE			RKNM			RTIB			RTIAP			RTIAD			RANK			RMED			RHEE			RTOE			RFMH			RSMH			RVMH			
		X1	Y1	Z1	X2	Y2	Z2	X3	Y3	Z3	X4	Y4	Z4	X5	Y5	Z5	X6	Y6	Z6	X7	Y7	Z7	X8	Y8	Z8	X9	Y9	Z9	X10	Y10	Z10	X11	Y11	Z11	X12	Y12	Z12	X13	Y13	Z13	X14	Y14	Z14	X15	Y15	Z15	X16	Y16	Z16	X17	Y17	Z17	X18	Y18	Z18	X19	Y19	Z19	X20	Y20	Z20	X21	Y21	Z21	X22	Y22	Z22	X23	Y23	Z23	X24	Y24	Z24	X25	Y25	Z25	X26	Y26	Z26	X27	Y27	Z27	X28	Y28	Z28	X29	Y29	Z29	X30	Y30	Z30	X31	Y31	Z31	X32	Y32	Z32	X33	Y33	Z33	X34	Y34	Z34	
492	2.455	258.83386	593.8266	-1093.1173	262.69742	609.05261	-1356.3735				434.21997	704.90833	-1252.449	245.20206	577.28424	-1018.3637	293.60712	596.80481	-1028.0802	231.59468	525.58398	-957.96625	124.58784	419.07898	-899.57391				186.28914	247.67522	-893.08545	81.582153	294.34366	-919.83612	154.78255	206.94662	-914.612	282.54474	67.800728	-946.1698				315.93582	69.679115	-1002.0289	204.42664	70.443039	-949.68866	147.13359	46.102985	-971.8866				170.67096	25.251781	-895.41199	201.67738	519.64844	-1456.7656	261.80798	601.72388	-1402.1174	192.97696	573.23566	-1396.701	103.47801	422.77109	-1474.7698				132.53429	252.14499	-1493.4181	59.617027	279.78278	-1451.3137	108.77482	210.67529	-1445.6526	272.05746	63.057491	-1455.3059				302.03519	64.906433	-1406.124	182.47014	68.302933	-1450.2109	131.33211	49.118141	-1434.2449				156.20589	18.702761	-1503.7572
493	2.46	258.29657	597.18976	-1093.0955	262.10632	612.48322	-1356.3087				433.5524	708.40332	-1252.4338	244.07346	579.23517	-1017.8452	292.64536	599.19397	-1027.749	230.89717	527.15961	-957.73578	124.76758	419.54037	-899.77234				186.54547	247.87329	-893.19696	81.982697	294.63876	-920.01129	154.9518	207.12692	-914.64966	282.59045	67.805511	-946.10864				316.00415	69.660622	-1001.9306	204.46284	70.457832	-949.63153	147.17288	46.112598	-971.89093				170.65945	25.218063	-895.40955	201.10896	521.08508	-1456.6967	260.90457	603.98029	-1402.2567	191.92798	574.8313	-1396.9229	103.68433	423.38495	-1474.454				132.88873	252.45047	-1493.2213	60.051651	280.13211	-1451.092	109.05791	210.94827	-1445.4998	272.07941	63.070938	-1455.3217				302.07449	64.882484	-1406.1398	182.47581	68.31929	-1450.2017	131.34567	49.117477	-1434.2356				156.19907	18.692303	-1503.7596
494	2.465	257.73618	600.57001	-1093.0665	261.48398	615.95673	-1356.2438				432.87033	711.91687	-1252.4147	242.94313	581.19391	-1017.3318	291.67035	601.58771	-1027.4203	230.19833	528.7392	-957.51697	124.95553	420.0123	-899.99164				186.80836	248.08078	-893.32227	82.392265	294.94516	-920.20477	155.12627	207.31648	-914.70135	282.63708	67.811752	-946.05127				316.07248	69.640419	-1001.8342	204.49542	70.472984	-949.57867	147.21385	46.120453	-971.89496				170.64772	25.18585	-895.40698	200.54254	522.53314	-1456.639	259.98471	606.255	-1402.4031	190.87112	576.42914	-1397.1558	103.9065	424.00677	-1474.1447				133.258	252.76009	-1493.0276	60.498714	280.49002	-1450.8796	109.34933	211.22699	-1445.3535	272.1026	63.083	-1455.3359				302.11383	64.857605	-1406.1542	182.48215	68.335815	-1450.1937	131.36058	49.117332	-1434.2267				156.19408	18.682076	-1503.7612
495	2.47	257.15115	603.96698	-1093.0316	260.83057	619.46979	-1356.1809				432.17264	715.44684	-1252.3931	241.81026	583.15985	-1016.8275	290.68002	603.98486	-1027.0968	229.49786	530.32343	-957.31195	125.15137	420.49533	-900.23309				187.07796	248.29829	-893.46271	82.811012	295.26349	-920.41766	155.30646	207.51624	-914.76788	282.68472	67.819435	-945.99811				316.14072	69.618904	-1001.7405	204.52444	70.488297	-949.53033	147.25687	46.125824	-971.89844				170.63554	25.155382	-895.40405	199.97777	523.992	-1456.5939	259.04709	608.5462	-1402.5569	189.80672	578.0282	-1397.4005	104.14427	424.63638	-1473.8424				133.64117	253.07408	-1492.8374	60.958099	280.85699	-1450.6759	109.64852	211.51141	-1445.2134	272.12689	63.093655	-1455.3496				302.15317	64.831993	-1406.1676	182.48915	68.352303	-1450.1877	131.37634	49.117519	-1434.2183				156.19072	18.671875	-1503.7622
496	2.475	256.54004	607.3811	-1092.9916	260.14661	623.0188	-1356.1222				431.45871	718.992	-1252.369	240.67369	585.13257	-1016.3351	289.67218	606.3847	-1026.781	228.79527	531.91272	-957.12274	125.3549	420.98999	-900.4978				187.35469	248.52646	-893.61908	83.239174	295.5947	-920.65076	155.493	207.72708	-914.84991	282.73318	67.828644	-945.94946				316.20865	69.596519	-1001.6503	204.54997	70.503502	-949.48688	147.30217	46.128208	-971.90106				170.62256	25.126865	-895.40021	199.41418	525.4613	-1456.5613	258.09052	610.85187	-1402.7186	188.73503	579.62823	-1397.6573	104.39721	425.2735	-1473.5466				134.03706	253.39302	-1492.6515	61.429722	281.23367	-1450.4792	109.95514	211.80185	-1445.0791	272.15213	63.102982	-1455.3624				302.19235	64.805824	-1406.1808	182.49684	68.3685	-1450.1838	131.39261	49.117821	-1434.2108				156.18884	18.661484	-1503.7628
497	2.48	255.90106	610.81427	-1092.9484	259.43271	626.60022	-1356.0696				430.72827	722.55151	-1252.3434	239.53195	587.11133	-1015.8577	288.64459	608.78687	-1026.4755	228.09006	533.50769	-956.95074	125.56598	421.49646	-900.78668				187.63916	248.7659	-893.79248	83.677124	295.93945	-920.9046	155.68651	207.94989	-914.948	282.78238	67.83947	-945.90533				316.27621	69.573799	-1001.5651	204.57224	70.518433	-949.44818	147.34961	46.127472	-971.90265				170.60846	25.100458	-895.3952	198.85109	526.94037	-1456.5417	257.11346	613.17023	-1402.8885	187.65627	581.2287	-1397.927	104.66479	425.91803	-1473.2572				134.44453	253.71739	-1492.47	61.913559	281.62054	-1450.2891	110.26897	212.09857	-1444.9502	272.17813	63.111126	-1455.3752				302.23141	64.779213	-1406.1937	182.50522	68.384216	-1450.1823	131.40926	49.118004	-1434.2035				156.18829	18.650663	-1503.7628
498	2.485	255.23267	614.26941	-1092.9041	258.68939	630.20996	-1356.0249				429.98108	726.12433	-1252.3168	238.38344	589.09546	-1015.3975	287.59503	611.19208	-1026.1819	227.3817	535.10895	-956.7973	125.78472	422.01492	-901.10071				187.93224	249.01727	-893.98346	84.125366	296.29837	-921.1792	155.88777	208.18553	-915.06213	282.83218	67.852188	-945.86578				316.34314	69.55114	-1001.4855	204.59152	70.532982	-949.41412	147.39876	46.123817	-971.90356				170.59299	25.076275	-895.38831	198.28792	528.42841	-1456.5352	256.11447	615.49878	-1403.0669	186.57051	582.82935	-1398.2098	104.94649	426.56989	-1472.9739				134.86252	254.04758	-1492.2937	62.409657	282.01813	-1450.1038	110.59008	212.40193	-1444.8262	272.20493	63.118248	-1455.3878				302.27023	64.752251	-1406.207	182.51434	68.399208	-1450.1826	131.42619	49.117882	-1434.1967				156.18901	18.639149	-1503.7626
499	2.49	254.53305	617.75079	-1092.8616	257.91748	633.84406	-1355.9897				429.21698	729.70941	-1252.2896	237.22658	591.08411	-1014.9566	286.52136	613.6012	-1025.9021	226.66959	536.71667	-956.66321	126.01144	422.54532	-901.44019				188.23499	249.28125	-894.19287	84.584587	296.67194	-921.47455	156.09741	208.43474	-915.19214	282.88242	67.867104	-945.83112				316.40909	69.528847	-1001.4123	204.60837	70.547173	-949.38446	147.44894	46.117641	-971.90369				170.57578	25.054369	-895.37885	197.72408	529.92462	-1456.5405	255.09232	617.83563	-1403.254	185.47787	584.42993	-1398.5052	105.24185	427.22894	-1472.6964				135.2903	254.38371	-1492.1227	62.918201	282.42679	-1449.9222	110.91879	212.71222	-1444.7058	272.23245	63.12447	-1455.4006				302.30887	64.724976	-1406.2207	182.52415	68.413292	-1450.1858	131.44339	49.117317	-1434.1899				156.1909	18.626675	-1503.7618
500	2.495	253.80045	621.26343	-1092.8231	257.11768	637.49854	-1355.9653				428.43597	733.30573	-1252.2622	236.05977	593.0766	-1014.5364	285.42163	616.01581	-1025.6371	225.95326	538.33154	-956.54907	126.24669	423.08765	-901.80573				188.5486	249.55862	-894.4209	85.055511	297.06021	-921.79047	156.31618	208.69809	-915.33765	282.93304	67.88456	-945.80096				316.47375	69.507065	-1001.346	204.6234	70.561005	-949.35864	147.49951	46.109337	-971.9032				170.5565	25.034733	-895.36633	197.15918	531.42859	-1456.5577	254.04576	620.17877	-1403.45	184.37857	586.02985	-1398.8134	105.5505	427.89523	-1472.4246				135.72751	254.72603	-1491.9563	63.439564	282.84677	-1449.7437	111.25549	213.02966	-1444.5887	272.26083	63.12994	-1455.4132				302.3472	64.697388	-1406.2346	182.53471	68.426331	-1450.1914	131.46085	49.116219	-1434.183				156.19388	18.612997	-1503.761
501	2.5	253.03313	624.81195	-1092.7915	256.29092	641.16949	-1355.9531				427.63852	736.91327	-1252.2354	234.88162	595.0719	-1014.1379	284.29443	618.43683	-1025.3873	225.23241	539.9538	-956.45502	126.49123	423.64203	-902.19727				188.8744	249.85007	-894.66803	85.538986	297.46359	-922.12634	156.54486	208.97618	-915.49792	282.98392	67.9049	-945.77515				316.53687	69.485825	-1001.2869	204.6375	70.574532	-949.33612	147.54994	46.099224	-971.90222				170.53491	25.017357	-895.35022	196.59309	532.93958	-1456.5859	252.97388	622.52637	-1403.6545	183.27281	587.62885	-1399.1337	105.87212	428.56894	-1472.1576				136.17419	255.07489	-1491.795	63.974277	283.27841	-1449.5671	111.60056	213.35469	-1444.4747	272.29034	63.134804	-1455.4255				302.38531	64.669456	-1406.2487	182.54594	68.438255	-1450.1995	131.47861	49.114563	-1434.1759				156.19795	18.597927	-1503.7598
502	2.505	252.22951	628.40009	-1092.7686	255.43785	644.85315	-1355.9537				426.8248	740.53162	-1252.2095	233.69109	597.06927	-1013.7614	283.13913	620.86481	-1025.1538	224.50685	541.58331	-956.38104	126.74597	424.20856	-902.61444				189.21381	250.15631	-894.93427	86.035774	297.88239	-922.48114	156.78456	209.26964	-915.67224	283.03497	67.928352	-945.75348				316.59842	69.465088	-1001.2347	204.65121	70.587677	-949.31641	147.59982	46.087524	-971.90063				170.51085	25.00223	-895.3302	196.02579	534.45715	-1456.6238	251.87599	624.87701	-1403.868	182.16072	589.22638	-1399.4657	106.20655	429.25006	-1471.895				136.63057	255.431	-1491.6387	64.523033	283.72183	-1449.392	111.9544	213.68774	-1444.363	272.32132	63.139297	-1455.4369				302.42316	64.641159	-1406.2628	182.55786	68.449005	-1450.2104	131.4967	49.112328	-1434.1681				156.20299	18.581312	-1503.7582
